<svg width="208" height="229" viewBox="0 0 208 229" fill="none" xmlns="http://www.w3.org/2000/svg">
<path fill-rule="evenodd" clip-rule="evenodd" d="M25.9219 222.797C27.0469 221.016 27.6797 218.977 27.8203 216.68H20.8125C20.7188 218.055 20.4141 219.203 19.8984 220.125C19.3984 221.047 18.6719 221.742 17.7188 222.211C16.7656 222.68 15.5547 222.914 14.0859 222.914C12.8359 222.914 11.7656 222.688 10.875 222.234C10 221.766 9.28125 221.078 8.71875 220.172C8.17188 219.25 7.76562 218.125 7.5 216.797C7.23438 215.453 7.10156 213.898 7.10156 212.133V209.719C7.10156 207.906 7.24219 206.328 7.52344 204.984C7.82031 203.625 8.26562 202.5 8.85938 201.609C9.45312 200.719 10.1875 200.055 11.0625 199.617C11.9375 199.18 12.9609 198.961 14.1328 198.961C15.6953 198.961 16.9453 199.211 17.8828 199.711C18.8359 200.195 19.5469 200.922 20.0156 201.891C20.4844 202.844 20.7578 204.008 20.8359 205.383H27.8672C27.6484 203.07 26.9922 201.008 25.8984 199.195C24.8203 197.383 23.2969 195.961 21.3281 194.93C19.375 193.898 16.9766 193.383 14.1328 193.383C11.9922 193.383 10.0547 193.766 8.32031 194.531C6.58594 195.297 5.09375 196.391 3.84375 197.812C2.60938 199.234 1.65625 200.961 0.984375 202.992C0.328125 205.008 0 207.266 0 209.766V212.133C0 214.633 0.320312 216.891 0.960938 218.906C1.60156 220.922 2.53125 222.641 3.75 224.062C4.98438 225.484 6.46875 226.578 8.20312 227.344C9.9375 228.094 11.8984 228.469 14.0859 228.469C16.8828 228.469 19.2734 227.969 21.2578 226.969C23.2578 225.969 24.8125 224.578 25.9219 222.797ZM45.3047 208.898C45.5703 209.477 45.7031 210.172 45.7031 210.984V212.555H42.6797C40.7422 212.555 39.0391 212.742 37.5703 213.117C36.1016 213.477 34.875 214.016 33.8906 214.734C32.9219 215.438 32.1875 216.305 31.6875 217.336C31.1875 218.367 30.9375 219.547 30.9375 220.875C30.9375 222.344 31.3125 223.656 32.0625 224.812C32.8281 225.953 33.8594 226.852 35.1562 227.508C36.4688 228.148 37.9297 228.469 39.5391 228.469C40.8047 228.469 41.8984 228.281 42.8203 227.906C43.7422 227.516 44.5312 227.023 45.1875 226.43C45.4707 226.167 45.7321 225.896 45.9717 225.619C46.1419 226.563 46.3805 227.357 46.6875 228H53.5078V227.602C53.1797 226.945 52.9297 226.18 52.7578 225.305C52.5859 224.414 52.5 223.273 52.5 221.883V211.031C52.5 209.062 52.0547 207.422 51.1641 206.109C50.2891 204.797 49.0859 203.812 47.5547 203.156C46.0234 202.5 44.2734 202.172 42.3047 202.172C40.6641 202.172 39.1797 202.383 37.8516 202.805C36.5391 203.227 35.4062 203.812 34.4531 204.562C33.5 205.297 32.7734 206.148 32.2734 207.117C31.7734 208.086 31.5234 209.109 31.5234 210.188H38.2734C38.2734 209.547 38.4219 208.992 38.7188 208.523C39.0156 208.039 39.4375 207.672 39.9844 207.422C40.5312 207.156 41.1797 207.023 41.9297 207.023C42.8047 207.023 43.5156 207.188 44.0625 207.516C44.625 207.844 45.0391 208.305 45.3047 208.898ZM45.7031 220.832V216.375H42.8672C41.9766 216.375 41.2031 216.477 40.5469 216.68C39.8906 216.883 39.3516 217.172 38.9297 217.547C38.5078 217.906 38.1953 218.328 37.9922 218.812C37.8047 219.297 37.7109 219.828 37.7109 220.406C37.7109 220.984 37.8438 221.508 38.1094 221.977C38.375 222.43 38.7578 222.789 39.2578 223.055C39.7578 223.305 40.3438 223.43 41.0156 223.43C42.0312 223.43 42.9141 223.227 43.6641 222.82C44.4141 222.414 44.9922 221.914 45.3984 221.32C45.5157 221.155 45.6173 220.993 45.7031 220.832ZM70.9922 219.68C71.2734 220.07 71.4141 220.508 71.4141 220.992C71.4141 221.539 71.2578 222.023 70.9453 222.445C70.6484 222.852 70.2109 223.18 69.6328 223.43C69.0547 223.664 68.3281 223.781 67.4531 223.781C66.6406 223.781 65.8828 223.656 65.1797 223.406C64.4922 223.156 63.9219 222.75 63.4688 222.188C63.0312 221.625 62.7969 220.883 62.7656 219.961H56.3672C56.3672 221.336 56.7812 222.68 57.6094 223.992C58.4531 225.289 59.6875 226.359 61.3125 227.203C62.9531 228.047 64.9531 228.469 67.3125 228.469C68.9375 228.469 70.3984 228.281 71.6953 227.906C73.0078 227.516 74.1328 226.977 75.0703 226.289C76.0078 225.586 76.7266 224.766 77.2266 223.828C77.7266 222.891 77.9766 221.859 77.9766 220.734C77.9766 219.078 77.5547 217.742 76.7109 216.727C75.8672 215.695 74.7266 214.883 73.2891 214.289C71.8516 213.68 70.2188 213.188 68.3906 212.812C67.5 212.641 66.75 212.453 66.1406 212.25C65.5469 212.031 65.0625 211.797 64.6875 211.547C64.3125 211.297 64.0391 211.023 63.8672 210.727C63.7109 210.414 63.6328 210.062 63.6328 209.672C63.6328 209.156 63.7734 208.688 64.0547 208.266C64.3516 207.828 64.7734 207.484 65.3203 207.234C65.8672 206.969 66.5156 206.836 67.2656 206.836C68.1719 206.836 68.9062 206.992 69.4688 207.305C70.0469 207.602 70.4688 208.016 70.7344 208.547C71.0156 209.062 71.1562 209.648 71.1562 210.305H77.9062C77.9062 208.742 77.4766 207.352 76.6172 206.133C75.7734 204.898 74.5547 203.93 72.9609 203.227C71.3828 202.523 69.4922 202.172 67.2891 202.172C65.7109 202.172 64.2891 202.383 63.0234 202.805C61.7734 203.211 60.7109 203.781 59.8359 204.516C58.9766 205.234 58.3125 206.062 57.8438 207C57.3906 207.938 57.1641 208.938 57.1641 210C57.1641 211.078 57.3906 212.039 57.8438 212.883C58.2969 213.711 58.9219 214.43 59.7188 215.039C60.5312 215.648 61.4844 216.172 62.5781 216.609C63.6875 217.031 64.8828 217.383 66.1641 217.664C67.5859 217.945 68.6719 218.258 69.4219 218.602C70.1875 218.93 70.7109 219.289 70.9922 219.68ZM88.9453 209.86C89.012 209.739 89.0823 209.622 89.1562 209.508C89.5625 208.867 90.1016 208.367 90.7734 208.008C91.4609 207.648 92.2891 207.469 93.2578 207.469C94.1328 207.469 94.8672 207.609 95.4609 207.891C96.0703 208.156 96.5312 208.617 96.8438 209.273C97.1719 209.914 97.3359 210.797 97.3359 211.922V228H104.133V211.969C104.133 210.188 103.93 208.672 103.523 207.422C103.117 206.172 102.539 205.164 101.789 204.398C101.055 203.617 100.172 203.055 99.1406 202.711C98.125 202.352 96.9922 202.172 95.7422 202.172C94.3047 202.172 92.9922 202.477 91.8047 203.086C90.7078 203.656 89.7547 204.446 88.9453 205.454V192H82.1953V228H88.9453V209.86ZM148.031 209.953C147.5 211.516 147.234 213.227 147.234 215.086V215.578C147.234 217.422 147.5 219.133 148.031 220.711C148.562 222.273 149.336 223.641 150.352 224.812C151.383 225.969 152.641 226.867 154.125 227.508C155.625 228.148 157.336 228.469 159.258 228.469C161.18 228.469 162.883 228.148 164.367 227.508C165.852 226.867 167.102 225.969 168.117 224.812C169.148 223.641 169.93 222.273 170.461 220.711C170.992 219.133 171.258 217.422 171.258 215.578V215.086C171.258 213.227 170.992 211.516 170.461 209.953C169.93 208.375 169.148 207.008 168.117 205.852C167.102 204.695 165.844 203.797 164.344 203.156C162.844 202.5 161.133 202.172 159.211 202.172C157.289 202.172 155.586 202.5 154.102 203.156C152.617 203.797 151.367 204.695 150.352 205.852C149.336 207.008 148.562 208.375 148.031 209.953ZM154.266 218.555C154.078 217.633 153.984 216.641 153.984 215.578V215.086C153.984 214.055 154.078 213.086 154.266 212.18C154.453 211.258 154.75 210.445 155.156 209.742C155.578 209.023 156.117 208.461 156.773 208.055C157.445 207.648 158.258 207.445 159.211 207.445C160.164 207.445 160.977 207.648 161.648 208.055C162.32 208.461 162.859 209.023 163.266 209.742C163.688 210.445 163.992 211.258 164.18 212.18C164.383 213.086 164.484 214.055 164.484 215.086V215.578C164.484 216.641 164.383 217.633 164.18 218.555C163.992 219.477 163.695 220.289 163.289 220.992C162.883 221.68 162.344 222.219 161.672 222.609C161 223 160.195 223.195 159.258 223.195C158.289 223.195 157.469 223 156.797 222.609C156.125 222.219 155.578 221.68 155.156 220.992C154.75 220.289 154.453 219.477 154.266 218.555ZM187.922 202.641L183.293 219.14L179.977 202.641H173.461L179.883 228H181.969H184.102H185.555L190.356 211.632L195.164 228H196.641H198.773H200.836L207.258 202.641H200.719L197.435 219.122L192.797 202.641H192.211H188.555H187.922ZM116.719 208.453V199.383H131.953V193.875H116.719H114.797H109.688V228H116.719V213.938H130.312V208.453H116.719ZM142.734 228V192H135.961V228H142.734Z" fill="white"/>
<g filter="url(#filter0_d_3_171)">
<path d="M94.053 4H118.544V24.6294C122.242 25.4708 125.609 26.6947 128.647 28.3013C135.076 31.6743 140.05 36.325 143.571 42.2534C147.143 48.1818 149.286 54.9279 150 62.4917H127.04C126.784 57.9943 125.892 54.1868 124.361 51.0693C122.83 47.9007 120.509 45.5242 117.396 43.9399C114.335 42.3045 110.253 41.4868 105.151 41.4868C101.324 41.4868 97.9818 42.2023 95.1245 43.6333C92.2672 45.0643 89.8691 47.2363 87.9302 50.1494C85.9913 53.0625 84.5371 56.7422 83.5677 61.1885C82.6493 65.5837 82.1901 70.7454 82.1901 76.6738V84.5698C82.1901 90.3449 82.6238 95.43 83.4912 99.8252C84.3586 104.169 85.6852 107.849 87.471 110.864C89.3078 113.828 91.6549 116.077 94.5122 117.61C97.4205 119.092 100.916 119.833 104.997 119.833C109.794 119.833 113.748 119.067 116.86 117.534C119.973 116 122.345 113.726 123.978 110.711C125.662 107.696 126.657 103.939 126.963 99.4419H149.847C149.388 106.955 147.321 113.624 143.648 119.45C140.025 125.276 134.948 129.825 128.417 133.096C125.412 134.613 122.121 135.778 118.544 136.592V161H94.053V136.925C91.1419 136.316 88.3866 135.448 85.7872 134.322C80.1236 131.818 75.2764 128.241 71.2456 123.59C67.2658 118.939 64.2299 113.317 62.1379 106.725C60.046 100.132 59 92.7469 59 84.5698V76.8271C59 68.6501 60.0715 61.2651 62.2145 54.6724C64.4085 48.0285 67.5209 42.3812 71.5517 37.7305C75.6336 33.0798 80.5063 29.5023 86.1699 26.998C88.6685 25.8932 91.2962 25.0322 94.053 24.4148V4Z" fill="#B6C13F"/>
</g>
<defs>
<filter id="filter0_d_3_171" x="55" y="0" width="107" height="173" filterUnits="userSpaceOnUse" color-interpolation-filters="sRGB">
<feFlood flood-opacity="0" result="BackgroundImageFix"/>
<feColorMatrix in="SourceAlpha" type="matrix" values="0 0 0 0 0 0 0 0 0 0 0 0 0 0 0 0 0 0 127 0" result="hardAlpha"/>
<feOffset dx="4" dy="4"/>
<feGaussianBlur stdDeviation="4"/>
<feComposite in2="hardAlpha" operator="out"/>
<feColorMatrix type="matrix" values="0 0 0 0 0.1425 0 0 0 0 0.1425 0 0 0 0 0.1425 0 0 0 0.41 0"/>
<feBlend mode="normal" in2="BackgroundImageFix" result="effect1_dropShadow_3_171"/>
<feBlend mode="normal" in="SourceGraphic" in2="effect1_dropShadow_3_171" result="shape"/>
</filter>
</defs>
</svg>
