<svg width="287" height="83" viewBox="0 0 287 83" fill="none" xmlns="http://www.w3.org/2000/svg">
<path fill-rule="evenodd" clip-rule="evenodd" d="M69.5448 34.6839C69.9007 35.4586 70.0787 36.3904 70.0787 37.4791V39.5833H66.0273C63.431 39.5833 61.1488 39.8346 59.1807 40.3371C57.2126 40.8186 55.569 41.541 54.2499 42.5041C52.9518 43.4463 51.9677 44.6083 51.2977 45.9902C50.6277 47.3721 50.2927 48.9529 50.2927 50.7325C50.2927 52.7007 50.7952 54.4594 51.8002 56.0088C52.8262 57.5372 54.208 58.7411 55.9459 59.6205C57.7046 60.4789 59.6623 60.9082 61.8188 60.9082C63.5148 60.9082 64.9804 60.6569 66.2157 60.1544C67.451 59.631 68.5083 58.9714 69.3877 58.1758C69.7672 57.8234 70.1175 57.4613 70.4385 57.0894C70.6666 58.3545 70.9863 59.4181 71.3977 60.28H80.5369V59.7461C80.0973 58.8668 79.7623 57.8408 79.5319 56.6683C79.3016 55.4749 79.1865 53.9464 79.1865 52.083V37.5419C79.1865 34.9038 78.5898 32.7054 77.3963 30.9466C76.2238 29.1879 74.6116 27.8688 72.5598 26.9894C70.5079 26.11 68.1629 25.6704 65.5248 25.6704C63.3263 25.6704 61.3373 25.953 59.5576 26.5183C57.7988 27.0836 56.2808 27.8688 55.0037 28.8738C53.7265 29.8579 52.7529 30.9989 52.0829 32.2971C51.4129 33.5952 51.0779 34.9666 51.0779 36.4113H60.1229C60.1229 35.5529 60.3218 34.8096 60.7196 34.1814C61.1174 33.5324 61.6827 33.0404 62.4155 32.7054C63.1484 32.3494 64.0173 32.1714 65.0223 32.1714C66.1948 32.1714 67.1474 32.3913 67.8802 32.831C68.634 33.2707 69.1888 33.8883 69.5448 34.6839ZM70.0787 50.6756V44.7025H66.2785C65.0851 44.7025 64.0487 44.8386 63.1693 45.1108C62.2899 45.383 61.5676 45.7704 61.0023 46.2729C60.4369 46.7544 60.0182 47.3197 59.746 47.9688C59.4948 48.6179 59.3691 49.3297 59.3691 50.1044C59.3691 50.8791 59.5471 51.5805 59.903 52.2086C60.259 52.8158 60.7719 53.2974 61.4419 53.6533C62.1119 53.9883 62.8971 54.1558 63.7974 54.1558C65.1584 54.1558 66.3413 53.8836 67.3463 53.3393C68.3513 52.7949 69.126 52.1249 69.6704 51.3293C69.8275 51.1081 69.9636 50.8902 70.0787 50.6756Z" fill="white"/>
<path d="M103.966 49.1308C104.343 49.6543 104.531 50.2405 104.531 50.8896C104.531 51.6224 104.322 52.2714 103.903 52.8368C103.505 53.3811 102.919 53.8208 102.144 54.1558C101.37 54.4699 100.396 54.6269 99.2237 54.6269C98.1349 54.6269 97.1194 54.4594 96.1773 54.1244C95.256 53.7894 94.4918 53.245 93.8846 52.4913C93.2984 51.7375 92.9843 50.743 92.9424 49.5077H84.3685C84.3685 51.3502 84.9234 53.1508 86.033 54.9096C87.1637 56.6474 88.8177 58.0816 90.9952 59.2122C93.1937 60.3429 95.8737 60.9082 99.0352 60.9082C101.213 60.9082 103.17 60.6569 104.908 60.1544C106.667 59.631 108.174 58.9086 109.431 57.9874C110.687 57.0452 111.65 55.946 112.32 54.6897C112.99 53.4335 113.325 52.0516 113.325 50.5441C113.325 48.3247 112.76 46.5346 111.629 45.1736C110.499 43.7918 108.97 42.703 107.044 41.9074C105.118 41.0908 102.93 40.4313 100.48 39.9288C99.2865 39.6985 98.2815 39.4472 97.4649 39.175C96.6693 38.8819 96.0202 38.5679 95.5177 38.2329C95.0152 37.8979 94.6488 37.5314 94.4185 37.1336C94.2091 36.7149 94.1044 36.2438 94.1044 35.7204C94.1044 35.0294 94.2929 34.4013 94.6698 33.836C95.0676 33.2497 95.6329 32.7891 96.3657 32.4541C97.0985 32.0982 97.9674 31.9202 98.9724 31.9202C100.187 31.9202 101.171 32.1296 101.925 32.5483C102.699 32.9461 103.265 33.501 103.621 34.2129C103.997 34.9038 104.186 35.6889 104.186 36.5683H113.231C113.231 34.4746 112.655 32.6111 111.504 30.978C110.373 29.3239 108.74 28.0258 106.604 27.0836C104.489 26.1414 101.956 25.6704 99.0038 25.6704C96.8891 25.6704 94.9838 25.953 93.2879 26.5183C91.6129 27.0627 90.1891 27.8269 89.0166 28.811C87.8651 29.7741 86.9752 30.8838 86.3471 32.14C85.7399 33.3963 85.4363 34.7363 85.4363 36.16C85.4363 37.6047 85.7399 38.8924 86.3471 40.023C86.9543 41.1327 87.7918 42.0958 88.8596 42.9124C89.9484 43.7289 91.2255 44.4304 92.6912 45.0166C94.1777 45.5819 95.7794 46.053 97.4963 46.4299C99.4016 46.8068 100.857 47.2255 101.862 47.6861C102.888 48.1258 103.589 48.6074 103.966 49.1308Z" fill="white"/>
<path d="M128.023 35.9723C128.113 35.8102 128.207 35.6529 128.306 35.5005C128.85 34.6421 129.573 33.9721 130.473 33.4905C131.394 33.0089 132.504 32.7682 133.802 32.7682C134.974 32.7682 135.959 32.9566 136.754 33.3335C137.571 33.6894 138.188 34.3071 138.607 35.1864C139.047 36.0449 139.267 37.2279 139.267 38.7354V60.28H148.374V38.7982C148.374 36.4113 148.102 34.3804 147.558 32.7054C147.014 31.0304 146.239 29.6799 145.234 28.6539C144.25 27.6071 143.067 26.8533 141.685 26.3927C140.324 25.9111 138.806 25.6704 137.131 25.6704C135.205 25.6704 133.446 26.0786 131.855 26.8952C130.385 27.6595 129.108 28.7173 128.023 30.0685V12.04H118.978V60.28H128.023V35.9723Z" fill="white"/>
<path fill-rule="evenodd" clip-rule="evenodd" d="M207.198 36.0972C206.486 38.191 206.131 40.4836 206.131 42.9752V43.6347C206.131 46.1054 206.486 48.398 207.198 50.5127C207.91 52.6064 208.947 54.4385 210.308 56.0088C211.689 57.5582 213.375 58.7621 215.364 59.6205C217.374 60.4789 219.667 60.9082 222.242 60.9082C224.817 60.9082 227.099 60.4789 229.089 59.6205C231.078 58.7621 232.753 57.5582 234.114 56.0088C235.495 54.4385 236.542 52.6064 237.254 50.5127C237.966 48.398 238.322 46.1054 238.322 43.6347V42.9752C238.322 40.4836 237.966 38.191 237.254 36.0972C236.542 33.9825 235.495 32.1505 234.114 30.6011C232.753 29.0518 231.067 27.8479 229.057 26.9894C227.047 26.11 224.754 25.6704 222.179 25.6704C219.604 25.6704 217.322 26.11 215.333 26.9894C213.344 27.8479 211.669 29.0518 210.308 30.6011C208.947 32.1505 207.91 33.9825 207.198 36.0972ZM215.552 47.6233C215.301 46.388 215.176 45.0585 215.176 43.6347V42.9752C215.176 41.5933 215.301 40.2952 215.552 39.0808C215.804 37.8455 216.201 36.7568 216.746 35.8146C217.311 34.8514 218.034 34.0977 218.913 33.5533C219.813 33.0089 220.902 32.7368 222.179 32.7368C223.456 32.7368 224.545 33.0089 225.445 33.5533C226.346 34.0977 227.068 34.8514 227.612 35.8146C228.178 36.7568 228.586 37.8455 228.837 39.0808C229.109 40.2952 229.246 41.5933 229.246 42.9752V43.6347C229.246 45.0585 229.109 46.388 228.837 47.6233C228.586 48.8586 228.188 49.9474 227.644 50.8896C227.099 51.8108 226.377 52.5332 225.477 53.0566C224.576 53.58 223.498 53.8418 222.242 53.8418C220.944 53.8418 219.845 53.58 218.944 53.0566C218.044 52.5332 217.311 51.8108 216.746 50.8896C216.201 49.9474 215.804 48.8586 215.552 47.6233Z" fill="white"/>
<path d="M260.652 26.2985L254.449 48.4079L250.005 26.2985H241.274L249.879 60.28H257.48L263.914 38.347L270.356 60.28H277.957L286.562 26.2985H277.8L273.399 48.384L267.184 26.2985H260.652Z" fill="white"/>
<path d="M165.24 34.0872V21.933H185.654V14.5525H155.818V60.28H165.24V41.4363H183.455V34.0872H165.24Z" fill="white"/>
<path d="M200.101 60.28V12.04H191.024V60.28H200.101Z" fill="white"/>
<g filter="url(#filter0_d_3_178)">
<path d="M18.9688 4H29.4273V12.8036C31.0062 13.1627 32.4443 13.685 33.7415 14.3706C36.4868 15.8101 38.6112 17.7948 40.1146 20.3247C41.6398 22.8547 42.555 25.7336 42.86 28.9614H33.0551C32.9462 27.0422 32.5649 25.4173 31.9112 24.0869C31.2576 22.7347 30.2662 21.7205 28.9371 21.0444C27.6298 20.3465 25.8867 19.9976 23.7078 19.9976C22.0737 19.9976 20.6465 20.3029 19.4263 20.9136C18.2062 21.5242 17.1821 22.4512 16.3541 23.6943C15.5262 24.9375 14.9052 26.5078 14.4912 28.4053C14.099 30.2809 13.9029 32.4837 13.9029 35.0137V38.3833C13.9029 40.8478 14.0881 43.0179 14.4585 44.8936C14.8289 46.7474 15.3954 48.3177 16.158 49.6045C16.9424 50.8695 17.9447 51.8291 19.1649 52.4834C20.4068 53.1159 21.8993 53.4321 23.6424 53.4321C25.6906 53.4321 27.3792 53.105 28.7083 52.4507C30.0374 51.7964 31.0506 50.8259 31.7478 49.5391C32.4668 48.2523 32.8917 46.6492 33.0224 44.73H42.7946C42.5985 47.936 41.7161 50.7822 40.1473 53.2686C38.6003 55.7549 36.4324 57.696 33.6434 59.0918C32.3599 59.7392 30.9546 60.2365 29.4273 60.5836V71H18.9688V60.7259C17.7256 60.4659 16.5491 60.0957 15.439 59.6152C13.0205 58.5466 10.9506 57.0199 9.22927 55.0352C7.52976 53.0505 6.23334 50.6514 5.34 47.8379C4.44666 45.0244 4 41.8729 4 38.3833V35.0791C4 31.5895 4.45756 28.438 5.37268 25.6245C6.30959 22.7892 7.63871 20.3792 9.36 18.3945C11.1031 16.4098 13.1839 14.8831 15.6024 13.8145C16.6694 13.343 17.7915 12.9755 18.9688 12.712V4Z" fill="#B6C13F"/>
</g>
<defs>
<filter id="filter0_d_3_178" x="0" y="0" width="54.8601" height="83" filterUnits="userSpaceOnUse" color-interpolation-filters="sRGB">
<feFlood flood-opacity="0" result="BackgroundImageFix"/>
<feColorMatrix in="SourceAlpha" type="matrix" values="0 0 0 0 0 0 0 0 0 0 0 0 0 0 0 0 0 0 127 0" result="hardAlpha"/>
<feOffset dx="4" dy="4"/>
<feGaussianBlur stdDeviation="4"/>
<feComposite in2="hardAlpha" operator="out"/>
<feColorMatrix type="matrix" values="0 0 0 0 0.1425 0 0 0 0 0.1425 0 0 0 0 0.1425 0 0 0 0.41 0"/>
<feBlend mode="normal" in2="BackgroundImageFix" result="effect1_dropShadow_3_178"/>
<feBlend mode="normal" in="SourceGraphic" in2="effect1_dropShadow_3_178" result="shape"/>
</filter>
</defs>
</svg>
