<svg width="100" height="100" viewBox="0 0 100 100" fill="none" xmlns="http://www.w3.org/2000/svg">
<mask id="path-1-inside-1_5_193" fill="white">
<rect width="100" height="100" rx="4"/>
</mask>
<rect width="100" height="100" rx="4" fill="#0F3245" stroke="white" stroke-width="10" mask="url(#path-1-inside-1_5_193)"/>
<g filter="url(#filter0_d_5_193)">
<path d="M45.0227 16H55.5189V24.8412C57.1035 25.2018 58.5468 25.7263 59.8486 26.4148C62.6039 27.8604 64.7359 29.8536 66.2447 32.3943C67.7754 34.9351 68.6939 37.8262 69 41.0679H59.1598C59.0505 39.1404 58.6678 37.5086 58.0118 36.1726C57.3558 34.8146 56.3608 33.7961 55.0269 33.1171C53.7149 32.4162 51.9655 32.0658 49.7788 32.0658C48.1388 32.0658 46.7065 32.3724 45.4819 32.9857C44.2574 33.599 43.2296 34.5299 42.3987 35.7783C41.5677 37.0268 40.9445 38.6038 40.529 40.5093C40.1354 42.393 39.9386 44.6052 39.9386 47.1459V50.5299C39.9386 53.005 40.1245 55.1843 40.4962 57.0679C40.868 58.9297 41.4365 60.5067 42.2019 61.799C42.9891 63.0693 43.9949 64.0331 45.2195 64.6901C46.4659 65.3253 47.9638 65.6429 49.7132 65.6429C51.7687 65.6429 53.4634 65.3144 54.7973 64.6573C56.1312 64.0002 57.148 63.0255 57.8478 61.7333C58.5694 60.441 58.9958 58.8311 59.127 56.9037H68.9344C68.7376 60.1234 67.852 62.9817 66.2775 65.4787C64.725 67.9756 62.5492 69.9249 59.7502 71.3267C58.4621 71.9769 57.0517 72.4763 55.5189 72.8249V83.2857H45.0227V72.9678C43.7751 72.7067 42.5943 72.3349 41.4802 71.8524C39.053 70.7792 36.9756 69.2459 35.2481 67.2528C33.5425 65.2596 32.2414 62.8503 31.3448 60.0248C30.4483 57.1994 30 54.0344 30 50.5299V47.2116C30 43.7072 30.4592 40.5422 31.3776 37.7167C32.3179 34.8694 33.6518 32.4491 35.3793 30.4559C37.1287 28.4628 39.217 26.9295 41.6442 25.8563C42.7151 25.3828 43.8412 25.0138 45.0227 24.7492V16Z" fill="#B6C13F"/>
</g>
<defs>
<filter id="filter0_d_5_193" x="26" y="12" width="55" height="83.2857" filterUnits="userSpaceOnUse" color-interpolation-filters="sRGB">
<feFlood flood-opacity="0" result="BackgroundImageFix"/>
<feColorMatrix in="SourceAlpha" type="matrix" values="0 0 0 0 0 0 0 0 0 0 0 0 0 0 0 0 0 0 127 0" result="hardAlpha"/>
<feOffset dx="4" dy="4"/>
<feGaussianBlur stdDeviation="4"/>
<feComposite in2="hardAlpha" operator="out"/>
<feColorMatrix type="matrix" values="0 0 0 0 0.1425 0 0 0 0 0.1425 0 0 0 0 0.1425 0 0 0 0.41 0"/>
<feBlend mode="normal" in2="BackgroundImageFix" result="effect1_dropShadow_5_193"/>
<feBlend mode="normal" in="SourceGraphic" in2="effect1_dropShadow_5_193" result="shape"/>
</filter>
</defs>
</svg>
